<svg width="32" height="32" viewBox="0 0 32 32" fill="none" xmlns="http://www.w3.org/2000/svg">
  <!-- Background rounded square with gradient -->
  <rect width="32" height="32" rx="6" fill="url(#gradient)"/>
  
  <!-- Book icon -->
  <path 
    d="M16 9.5v11m0-11c-1.05-.648-2.26-1-3.5-1s-2.45.352-3.5 1v11c1.05-.648 2.26-1 3.5-1s2.45.352 3.5 1m0-11c1.05-.648 2.26-1 3.5-1s2.45.352 3.5 1v11c-1.05-.648-2.26-1-3.5-1s-2.45.352-3.5 1" 
    stroke="#FBF8F3" 
    stroke-width="1.8" 
    stroke-linecap="round" 
    stroke-linejoin="round"
  />
  
  <!-- Small accent dot -->
  <circle cx="25" cy="7" r="2.5" fill="#6B7553"/>
  
  <!-- Gradient definition -->
  <defs>
    <linearGradient id="gradient" x1="0" y1="0" x2="32" y2="32" gradientUnits="userSpaceOnUse">
      <stop offset="0%" stop-color="#8B6F47"/>
      <stop offset="100%" stop-color="#5C4033"/>
    </linearGradient>
  </defs>
</svg>
